<?xml version="1.0" standalone="no"?>
<!DOCTYPE svg PUBLIC "-//W3C//DTD SVG 20010904//EN"
 "http://www.w3.org/TR/2001/REC-SVG-20010904/DTD/svg10.dtd">
<svg version="1.0" xmlns="http://www.w3.org/2000/svg"
 width="170.000000pt" height="137.000000pt" viewBox="0 0 170.000000 137.000000"
 preserveAspectRatio="xMidYMid meet">
<metadata>
Created by potrace 1.16, written by Peter Selinger 2001-2019
</metadata>
<g transform="translate(0.000000,137.000000) scale(0.100000,-0.100000)"
fill="#000000" stroke="none">
<path d="M670 1333 c0 -31 -5 -41 -22 -49 -13 -6 -17 -9 -9 -7 154 36 317 15
448 -58 29 -16 55 -29 58 -29 42 0 -143 115 -237 147 -43 15 -107 27 -155 30
l-83 6 0 -40z"/>
<path d="M780 539 c0 -4 7 -9 15 -13 11 -4 15 -22 15 -76 0 -40 -4 -70 -10
-70 -5 0 -10 -4 -10 -10 0 -6 37 -10 90 -10 50 0 90 4 90 9 0 5 -5 11 -11 13
-19 6 3 38 27 38 24 0 45 -26 37 -47 -4 -10 19 -13 91 -13 91 0 97 1 128 29
25 22 32 36 32 65 0 57 -29 79 -116 87 -68 6 -100 2 -70 -8 8 -3 12 -29 12
-80 0 -65 -2 -74 -17 -71 -11 2 -29 33 -49 83 -18 44 -37 81 -41 82 -5 2 -21
-33 -37 -77 -27 -77 -46 -108 -46 -76 0 9 -4 16 -10 16 -5 0 -10 -4 -10 -10 0
-5 -8 -10 -19 -10 -13 0 -20 9 -23 30 -4 24 -1 30 14 30 10 0 18 -4 18 -10 0
-5 5 -10 10 -10 6 0 10 10 10 23 0 20 -4 23 -27 20 -24 -4 -28 -1 -28 21 0 27
29 38 38 14 5 -16 14 -9 19 15 3 16 -5 18 -59 21 -35 1 -63 -1 -63 -5z"/>
<path d="M1430 539 c0 -5 5 -9 10 -9 6 0 10 -32 10 -75 0 -43 -4 -75 -10 -75
-5 0 -10 -4 -10 -10 0 -5 18 -10 40 -10 22 0 40 5 40 10 0 6 -4 10 -10 10 -5
0 -10 11 -10 25 0 33 8 32 46 -10 30 -34 84 -49 84 -25 0 6 -6 10 -13 10 -7 0
-26 14 -42 30 -25 26 -28 33 -17 50 16 25 15 55 0 68 -17 12 -118 22 -118 11z"/>
<path d="M1115 168 c-28 -17 -81 -43 -120 -57 -63 -23 -85 -26 -208 -26 -75 0
-133 -1 -127 -3 5 -2 10 -21 10 -43 l0 -39 63 0 c132 0 274 58 417 169 42 33
18 32 -35 -1z"/>
</g>
</svg>
